# xmcd
#
# Track frame offsets:
#	150
#	16140
#	31027
#	45237
#	60989
#	80854
#	97858
#	113520
#	127410
#	140344
#	159358
#	175711
#	192055
#	208900
#	229120
#
# Disc length: 3238 seconds
#
# Revision: 0
# Processed by: cddbd v1.5.2PL0 Copyright (c) Steve Scherf et al.
# Submitted via: audiograbber 1.83.01
#
DISCID=b50ca40f
DTITLE=Chamras Saewataporn - Piano In The Garden
DYEAR=2000
DGENRE=New Age
TTITLE0=Butterflies&Flowers
TTITLE1=Rainbow
TTITLE2=The Bulbul
TTITLE3=Strolling In The Garden
TTITLE4=Fog
TTITLE5=Dragonfly
TTITLE6=Fly To Imagination
TTITLE7=The Couple Birds
TTITLE8=Evening
TTITLE9=Sundown
TTITLE10=Butterflies&Flowers-More Natural Voice
TTITLE11=Rainbow-More Natural Voice
TTITLE12=Strolling In The Garden)More Natural Voice
TTITLE13=Fog-More Natural Voice
TTITLE14=Evening-More Natural Voice
EXTD=
EXTT0=
EXTT1=
EXTT2=
EXTT3=
EXTT4=
EXTT5=
EXTT6=
EXTT7=
EXTT8=
EXTT9=
EXTT10=
EXTT11=
EXTT12=
EXTT13=
EXTT14=
PLAYORDER=
